<svg width="24" height="24" viewBox="0 0 24 24" fill="none" xmlns="http://www.w3.org/2000/svg">
<path d="M11.5896 19.2854L11.5889 19.2844L2.59006 6.28606C2.5899 6.28583 2.58974 6.2856 2.58959 6.28537C2.53823 6.21028 2.50825 6.12264 2.50284 6.03182C2.49742 5.94072 2.51693 5.84987 2.55928 5.76903C2.60163 5.68819 2.66522 5.62043 2.7432 5.57302C2.82094 5.52577 2.91006 5.50053 3.00102 5.5L20.9998 5.5L21.0006 5.5C21.0918 5.49986 21.1813 5.52471 21.2594 5.57186C21.3374 5.619 21.4011 5.68665 21.4434 5.76743C21.4857 5.84821 21.5051 5.93905 21.4994 6.03007C21.4937 6.1211 21.4632 6.20882 21.4112 6.28371L21.4107 6.2844L12.4107 19.2844L12.41 19.2854C12.3642 19.3519 12.303 19.4063 12.2315 19.4439C12.1601 19.4814 12.0805 19.501 11.9998 19.501C11.9191 19.501 11.8396 19.4814 11.7681 19.4439C11.6967 19.4063 11.6354 19.3519 11.5896 19.2854Z" fill="white" stroke="black"/>
</svg>
