<svg width="27" height="27" viewBox="0 0 27 27" fill="none" xmlns="http://www.w3.org/2000/svg">
<path d="M13.5 1.6875C6.97676 1.6875 1.6875 6.97676 1.6875 13.5C1.6875 20.0232 6.97676 25.3125 13.5 25.3125C20.0232 25.3125 25.3125 20.0232 25.3125 13.5C25.3125 6.97676 20.0232 1.6875 13.5 1.6875ZM17.2995 13.6819L11.5409 17.8717C11.5093 17.8944 11.4721 17.9079 11.4334 17.9108C11.3946 17.9137 11.3558 17.9059 11.3212 17.8882C11.2866 17.8705 11.2575 17.8436 11.2372 17.8104C11.2169 17.7773 11.2061 17.7392 11.2061 17.7003V9.32607C11.2059 9.28712 11.2166 9.24889 11.2369 9.21563C11.2571 9.18236 11.2862 9.15536 11.3209 9.13761C11.3556 9.11986 11.3945 9.11206 11.4333 9.11508C11.4722 9.11809 11.5094 9.1318 11.5409 9.15469L17.2995 13.3418C17.3267 13.361 17.3489 13.3865 17.3642 13.4161C17.3795 13.4457 17.3875 13.4785 17.3875 13.5119C17.3875 13.5452 17.3795 13.578 17.3642 13.6076C17.3489 13.6372 17.3267 13.6627 17.2995 13.6819Z" fill="#F8F9FC"/>
</svg>
