<svg width="24" height="24" viewBox="0 0 24 24" fill="none" xmlns="http://www.w3.org/2000/svg">
<g clip-path="url(#clip0_197_10690)">
<path d="M24 12.001V11.995C24 8.44398 22.454 5.25498 19.999 3.06198L19.987 3.05198C19.9567 3.01929 19.9228 2.99011 19.886 2.96498L19.884 2.96398C17.7036 1.04951 14.8996 -0.00367857 11.998 0.00197578C8.966 0.00197578 6.198 1.12798 4.088 2.98598L4.101 2.97498C4.07557 2.99427 4.05212 3.01604 4.031 3.03998V3.04098C2.76253 4.16417 1.7472 5.54407 1.05226 7.08927C0.357326 8.63447 -0.00134689 10.3097 3.80066e-06 12.004C3.80066e-06 15.554 1.544 18.743 3.997 20.937L4.009 20.947C4.04077 20.983 4.07631 21.0155 4.115 21.044L4.117 21.045C6.29684 22.9566 9.09869 24.0082 11.998 24.003C14.9109 24.0075 17.7247 22.9461 19.909 21.019L19.896 21.03C21.1865 19.908 22.2209 18.522 22.9293 16.9657C23.6377 15.4093 24.0035 13.719 24.002 12.009V12.002L24 12.001ZM19.538 19.806C18.9436 19.3251 18.3043 18.9025 17.629 18.544L17.564 18.512C18.177 16.745 18.546 14.708 18.581 12.589V12.573H22.842C22.6983 15.3144 21.5184 17.8988 19.541 19.803L19.538 19.806ZM12.572 18.301C13.855 18.37 15.054 18.652 16.16 19.111L16.088 19.085C15.202 21.105 13.955 22.493 12.572 22.798V18.301ZM12.572 17.157V12.573H17.44C17.4014 14.4712 17.0722 16.3524 16.464 18.151L16.503 18.02C15.2615 17.5097 13.941 17.2181 12.6 17.158L12.573 17.157H12.572ZM12.572 11.429V6.84498C13.9492 6.78212 15.305 6.48065 16.579 5.95398L16.5 5.98298C17.055 7.60198 17.396 9.46798 17.44 11.408V11.429H12.572ZM12.572 5.70098V1.20598C13.955 1.51098 15.202 2.89298 16.088 4.91898C15.054 5.34898 13.855 5.62998 12.601 5.69998L12.572 5.70098ZM15.426 1.70098C16.6044 2.09401 17.7064 2.68664 18.684 3.45298L18.661 3.43498C18.218 3.78298 17.721 4.11098 17.197 4.39598L17.141 4.42398C16.7176 3.4247 16.1354 2.50045 15.417 1.68698L15.426 1.69798V1.70098ZM11.426 1.20898V5.70098C10.1925 5.63805 8.97891 5.36408 7.838 4.89098L7.91 4.91698C8.8 2.89698 10.045 1.50998 11.428 1.20498L11.426 1.20898ZM6.858 4.42098C6.31593 4.12933 5.79943 3.79247 5.314 3.41398L5.338 3.43198C6.28714 2.68813 7.35472 2.10937 8.496 1.71998L8.572 1.69698C7.87242 2.48841 7.30238 3.38549 6.883 4.35498L6.858 4.41998V4.42098ZM11.428 6.84398V11.428H6.56C6.604 9.46698 6.945 7.60098 7.539 5.85098L7.5 5.98198C8.74106 6.49145 10.0608 6.78273 11.401 6.84298L11.428 6.84398ZM11.428 12.572V17.156C10.0508 17.2188 8.69504 17.5203 7.421 18.047L7.5 18.018C6.945 16.4 6.604 14.533 6.56 12.593V12.572H11.428ZM11.428 18.3V22.795C10.045 22.49 8.798 21.108 7.912 19.082C8.946 18.652 10.145 18.372 11.399 18.302L11.428 18.301V18.3ZM8.578 22.3C7.39996 21.9081 6.29794 21.3168 5.32 20.552L5.344 20.57C5.787 20.222 6.284 19.894 6.808 19.609L6.864 19.581C7.28389 20.5807 7.86606 21.5041 8.587 22.314L8.578 22.304V22.3ZM17.142 19.58C17.722 19.895 18.219 20.222 18.686 20.587L18.662 20.569C17.7129 21.3128 16.6453 21.8916 15.504 22.281L15.428 22.304C16.1276 21.5129 16.6976 20.6162 17.117 19.647L17.142 19.582V19.58ZM22.842 11.429H18.581C18.5503 9.35993 18.1933 7.30868 17.523 5.35098L17.564 5.48898C18.2704 5.11704 18.9392 4.67766 19.561 4.17698L19.537 4.19498C21.5103 6.09201 22.6906 8.66681 22.84 11.4L22.841 11.428L22.842 11.429ZM4.462 4.19598C5.038 4.66398 5.685 5.09298 6.371 5.45798L6.436 5.48998C5.823 7.25698 5.454 9.29398 5.419 11.413V11.429H1.157C1.3007 8.68758 2.48065 6.10318 4.458 4.19898L4.461 4.19598H4.462ZM1.158 12.573H5.419C5.44966 14.642 5.80672 16.6933 6.477 18.651L6.436 18.513C5.685 18.912 5.039 19.341 4.439 19.825L4.463 19.807C2.48974 17.9099 1.30937 15.3351 1.16 12.602L1.159 12.574L1.158 12.573Z" fill="black"/>
</g>
<defs>
<clipPath id="clip0_197_10690">
<rect width="24" height="24" fill="white"/>
</clipPath>
</defs>
</svg>
